<svg id="Livello_1" data-name="Livello 1" xmlns="http://www.w3.org/2000/svg" viewBox="0 0 575.79 319.33"><defs><style>.cls-1{fill:#fff;}</style></defs><path d="M397.36,435.86q-83.4,0-166.81-.11a13,13,0,0,1-7.64-2.51q-76-61.32-151.78-123a9,9,0,0,1-2.79-5.91c-.3-6.08-1.92-13.24.63-18s9.47-7.21,14.59-10.5c27.46-17.64,55-35.19,82.39-52.9,2.84-1.84,4.63-1.82,7.33.34q66.85,53.5,134,106.67a16,16,0,0,0,9.2,3.17q160.32.24,320.64,0c5,0,5.88,1.49,6.17,6.21.45,7.55-2,13.12-6.93,18.77C615,382.56,594,407.37,573,432.17a9.78,9.78,0,0,1-8.38,3.77Q481,435.78,397.36,435.86ZM159.5,353.79c6.89,7.6,7.3,7.66,14.83,2.08l38-28.23,39-29c-5.35-6.55-5.88-6.62-12.14-2.12Q212,316.07,184.78,335.59,172.15,344.65,159.5,353.79Zm38.06,32.09a29.87,29.87,0,0,1,2.69,2.19c3.92,4.31,7.16,3.86,11.81.13,24.07-19.29,48.5-38.12,72.79-57.13,1-.8,2-1.71,2.93-2.56-5.52-6.42-5.82-6.46-11.8-1.94q-20.52,15.49-41,31C222.62,366.89,210.29,376.23,197.56,385.88Zm17.59-117.57c-6.52-6.09-6.51-6.09-12.92-1.72l-77.44,52.82c-1.3.88-2.54,1.85-4,2.93a29.8,29.8,0,0,1,3.16,2.57c3.55,3.88,6.58,3.46,10.87.33,18.27-13.33,36.87-26.2,55.35-39.24Zm-36.9-30c-5.74-6.29-5.75-6.31-12.06-2.24q-18.78,12.08-37.52,24.24L82.54,290.2c6.8,7.55,7.28,7.62,15,2.44l77.2-51.79C175.93,240.05,177.06,239.15,178.25,238.31Zm160.06,105.6c-7.13-.38-12.44-.49-17.85,4.08-24.79,21-50,41.36-75.13,62-1.21,1-2.36,2-4.67,4,7.63-.19,13.36,1.07,19.15-3.95,22.72-19.71,46-38.79,69-58.12,2.94-2.46,5.83-4.93,9.5-8.05Zm56.47.69-.76-2c-4.52,1.21-10.15,1.11-13.39,3.85-25.07,21.11-49.67,42.77-74.4,64.28-.9.78-1.65,1.74-2.84,3,7.91,1,13.89.25,19.79-5.25,17.74-16.57,36.19-32.38,54.36-48.5q8.61-7.67,17.24-15.42Zm-29.12,68.32.58,2.07c4.81-1,11-.54,14.19-3.41,23.5-21.27,46.4-43.2,69.47-65a27.19,27.19,0,0,0,2-2.41c-7.49-2-12.81.51-18.17,5.63-18.18,17.38-36.88,34.21-55.38,51.26Q372,407,365.66,412.88ZM509.56,344c-6.67-.7-11.81-.55-16.91,4.65-20.12,20.51-40.86,40.43-61.36,60.58-1.29,1.26-2.5,2.62-4.23,4.45,7.8,1,13.42.54,18.91-5.19,20-20.86,40.64-41.07,61-61.54.83-.84,1.51-1.74,2.59-3Zm57,.39-.55-1.65c-4.31,1.11-10,.83-12.68,3.54-20.82,21.06-41.06,42.69-61.46,64.16-.84.88-1.51,1.93-2.49,3.21,7.46,1.24,13,.51,18.28-5.43,18.44-20.64,37.59-40.64,56.46-60.89.84-1,1.6-2,2.41-3ZM551.4,413l.63,1.17c4.62-1.08,9.76,2.15,14-2.74,18.47-21.46,37.08-42.8,55.61-64.2.82-.93,1.47-2,2.21-3-7.47-2-12.48.3-17.26,6.12C595.73,363.59,584,376.13,572.67,389q-10.71,12-21.3,24Z" transform="translate(-67.56 -221.6)"/><path d="M78.15,446.63h7.2q241.68,0,483.35.12c4.25,0,7.06-1.15,9.86-4.48,20.16-23.94,40.55-47.68,60.88-71.47.83-1,1.76-1.87,3.23-3.4.16,2.08.34,3.35.34,4.62v68.86c0,10.1-12.35,19.09-21.66,15.66-.94-.35-1.66-2.55-1.68-3.91-.16-7.85-.08-15.72-.08-23.58L618,427.92a15.19,15.19,0,0,1-1.49,3.06c-9.33,11.43-18.8,22.75-28,34.3a13,13,0,0,0-2.53,7.19c-.3,8.63-.28,17.29-.06,25.93.12,4.35-1.71,5.49-5.65,4.84-5.81-1-7.78,1.18-7,7a11.34,11.34,0,0,1-.37,5.78c-2.35,5.34,1.4,5.67,4.72,5.78,2.55.09,5.14-.81,8.85-1.47-.83,3.26-.64,7.71-2.7,9.41-3.2,2.62-7.16.2-10.32-2.12-2,6-1.23,8.78,4,10.75-1.62.81-2.56,1.61-3.6,1.74-14,1.8-14.34,1.42-14.38-12.5,0-16.39-.34-32.79-.06-49.17.08-4.82-1.57-5.55-5.84-5.55Q361.28,473,169,473c-19.83,0-39.65.1-59.47-.08-3.9,0-5.1,1-5,5,.23,15.35.1,30.7.09,46,0,7.4-8.78,16.27-16.06,16.28-10.46,0-10.46,0-10.46-10.52v-83Z" transform="translate(-67.56 -221.6)"/><path d="M109.44,355.31c7.73,6.27,14.7,11.83,21.51,17.59a4.46,4.46,0,0,1,1,3.76q-6.81,25.48-13.8,50.89c-1.08,3.91-12.18,11.81-16.21,11.83H86.75C94.33,411.25,101.78,383.7,109.44,355.31Z" transform="translate(-67.56 -221.6)"/><path d="M160.4,397.31l-32.56,25.94c-.55-8.34,4.68-20.41,10.65-25.14l3.5-2.77C151.58,387.61,151.58,387.61,160.4,397.31Z" transform="translate(-67.56 -221.6)"/><path d="M585.35,515.12l-8.12-1.66c4.4-.68,7.49-2.46,8.12-7.39Z" transform="translate(-67.56 -221.6)"/><path class="cls-1" d="M159.5,353.79q12.66-9.14,25.3-18.22Q212,316,239.21,296.5c6.26-4.5,6.79-4.43,12.14,2.12l-39,29-38,28.23C166.8,361.45,166.39,361.39,159.5,353.79Z" transform="translate(-67.56 -221.6)"/><path class="cls-1" d="M197.56,385.88c12.73-9.65,25.06-19,37.4-28.32l41-31c6-4.52,6.28-4.48,11.8,1.94-1,.85-1.9,1.76-2.93,2.56-24.29,19-48.72,37.84-72.79,57.13-4.65,3.73-7.89,4.18-11.81-.13A29.19,29.19,0,0,0,197.56,385.88Z" transform="translate(-67.56 -221.6)"/><path class="cls-1" d="M215.15,268.31l-25,17.69c-18.48,13-37.08,25.91-55.35,39.24-4.29,3.13-7.32,3.55-10.87-.33a29.8,29.8,0,0,0-3.16-2.57c1.49-1.08,2.73-2,4-2.93l77.44-52.82C208.61,262.25,208.6,262.25,215.15,268.31Z" transform="translate(-67.56 -221.6)"/><path class="cls-1" d="M178.25,238.31c-1.19.88-2.32,1.78-3.52,2.58l-77.2,51.79c-7.71,5.18-8.19,5.11-15-2.44l46.14-29.93q18.75-12.15,37.52-24.28C172.5,232,172.51,232,178.25,238.31Z" transform="translate(-67.56 -221.6)"/><path class="cls-1" d="M338.31,343.87c-3.67,3.12-6.56,5.59-9.47,8-23,19.33-46.31,38.41-69,58.12-5.79,5-11.52,3.76-19.15,3.95,2.31-2,3.46-3.06,4.67-4,25.08-20.61,50.34-41,75.13-62C325.87,343.38,331.15,343.49,338.31,343.87Z" transform="translate(-67.56 -221.6)"/><path class="cls-1" d="M394.78,344.56l-17.24,15.35c-18.17,16.12-36.62,31.93-54.36,48.5-5.9,5.5-11.88,6.3-19.79,5.25,1.19-1.26,1.94-2.22,2.84-3,24.73-21.51,49.33-43.17,74.4-64.28,3.24-2.74,8.87-2.64,13.39-3.85Z" transform="translate(-67.56 -221.6)"/><path class="cls-1" d="M365.66,412.88l12.69-11.81c18.5-17,37.2-33.88,55.38-51.26,5.36-5.12,10.68-7.6,18.17-5.63a27.19,27.19,0,0,1-2,2.41c-23.07,21.75-46,43.68-69.47,65-3.17,2.87-9.38,2.36-14.19,3.41Z" transform="translate(-67.56 -221.6)"/><path class="cls-1" d="M509.56,343.94c-1.08,1.25-1.76,2.15-2.55,2.95-20.4,20.47-41.06,40.68-61,61.54-5.49,5.73-11.11,6.22-18.91,5.19,1.73-1.83,2.94-3.19,4.23-4.45,20.5-20.15,41.24-40.07,61.36-60.58C497.75,343.39,502.89,343.24,509.56,343.94Z" transform="translate(-67.56 -221.6)"/><path class="cls-1" d="M566.53,344.31c-.81,1-1.57,2-2.44,2.94-18.87,20.25-38,40.25-56.46,60.89-5.31,5.94-10.82,6.67-18.28,5.43,1-1.28,1.65-2.33,2.49-3.21,20.4-21.47,40.64-43.1,61.46-64.16,2.67-2.71,8.37-2.43,12.68-3.54Z" transform="translate(-67.56 -221.6)"/><path class="cls-1" d="M551.37,413Q562,401,572.61,388.9c11.35-12.84,23.06-25.38,33.92-38.62,4.78-5.82,9.79-8.07,17.26-6.12-.74,1-1.39,2.1-2.21,3-18.53,21.4-37.14,42.74-55.61,64.2-4.21,4.89-9.35,1.66-14,2.74Z" transform="translate(-67.56 -221.6)"/><path class="cls-1" d="M563.31,540.42" transform="translate(-67.56 -221.6)"/><path d="M585.88,499.19" transform="translate(-67.56 -221.6)"/><path d="M585.88,499.19c0,7.31.66,17,.6,22s-2.51,15.21-4.09,16.52-9.76,3.11-14.88,3.22-2.57-38.34-2.57-38.34Z" transform="translate(-67.56 -221.6)"/></svg>