<svg id="Livello_1" data-name="Livello 1" xmlns="http://www.w3.org/2000/svg" viewBox="0 0 529.57 421.69"><defs><style>.cls-1{fill:#39b54a;}</style></defs><path class="cls-1" d="M467.08,186.26a334.3,334.3,0,0,1-5.57,53.08,345,345,0,0,1-12.35,48.21c-1.19,3.5-1.14,3.46-4.61,2.21-14.91-5.4-29.85-10.73-44.75-16.15-20.88-7.6-41.74-15.28-62.63-22.86-18.08-6.55-36.19-13-54.29-19.49-10.81-3.88-21.6-7.83-32.45-11.6-2.43-.84-2.73-1.78-1.7-4,11-24.18,23.75-47.3,39.6-68.65,10.36-13.94,21.5-27.23,34.49-38.85,10-8.93,20.5-17.14,32.39-23.39,13-6.86,26.55-12,41.64-11.87,19,.15,34.17,8.06,46,22.71,9.35,11.61,14.79,25.1,18.49,39.36C465.54,151.21,467,167.85,467.08,186.26Z" transform="translate(-51.84 -60.25)"/><path class="cls-1" d="M282.92,476c-29.77-.46-62.74-1-95.72-1.5q-43.27-.71-86.56-1.47l-34.09-.6a13.3,13.3,0,0,1-13.28-12.65c-.51-7.48-.66-15-1.4-22.44a11.93,11.93,0,0,1,11-12.79l1,0c18.73.43,37.47.55,56.21.79,23.61.31,47.22.57,70.83.93,19.61.31,39.21.76,58.82,1.1,4.56.08,4.5,0,6.12-4.35q11.2-29.79,22.47-59.57Q294,321.69,309.72,280c.75-2,1.56-4,2.35-5.92,1.29-3.2,1.3-3.23,4.57-2l30.25,11c4.21,1.54,8.46,3,12.66,4.6,3,1.11,3,1.3,1.84,4.35q-4.12,10.86-8.31,21.68-13.41,34.77-26.83,69.53-7.89,20.44-15.76,40.89c-.23.59-.42,1.18-.65,1.76-.77,1.86.07,2.49,1.85,2.53,4.62.12,9.24.33,13.86.43,29.1.63,58.21,1.18,87.31,1.85s57.94,1.44,86.91,2.19c2.75.07,5.5.19,8.24.4,6.92.54,11.8,5.63,11.73,12.63q-.13,12.18-.86,24.34c-.4,6.74-6.16,11.79-13.23,11.69-9.37-.12-18.73-.48-28.1-.75-15.48-.44-31-.91-46.44-1.33q-46.28-1.23-92.54-2.41C321.09,477,303.61,476.53,282.92,476Z" transform="translate(-51.84 -60.25)"/><path class="cls-1" d="M581.41,302.56c-.32,6.11-.53,12.23-1,18.33-.64,8.7-10.14,14.47-19,11.42-9.33-3.21-18.56-6.71-27.83-10.09L478,302c-4-1.47-3.94-1.44-2.54-5.61,5.75-17.18,11-34.53,14.16-52.39,2.28-12.9,4.67-25.85,5.71-38.88a358.25,358.25,0,0,0,.56-40.4c-.31-9.44-1.78-18.89-3.36-28.22-1.08-6.35-3.26-12.52-4.93-18.77a17.82,17.82,0,0,1-.32-2,7.62,7.62,0,0,1,1.94.9c7.1,6.29,14.45,12.33,21.19,19A238.34,238.34,0,0,1,558,202.28a234,234,0,0,1,23.34,100.29Z" transform="translate(-51.84 -60.25)"/><path class="cls-1" d="M324.87,60.9h9.74a3.56,3.56,0,0,1,1,.33,3.31,3.31,0,0,1-.54.88,11.75,11.75,0,0,1-1.54,1.07c-18.84,11.48-34.6,26.49-49.25,42.81a307.48,307.48,0,0,0-30.24,40,370.81,370.81,0,0,0-24.28,43.84c-2.41,5.21-4.74,10.45-7.15,15.66-1.51,3.26-1.59,3.35-5.1,2.12-10.59-3.73-21.16-7.53-31.73-11.32q-20.44-7.32-40.87-14.67c-3.52-1.27-7-2.52-10.51-3.95-9.31-3.83-11.72-13.62-5.51-21.48a233.41,233.41,0,0,1,28.5-30.71c14.52-12.84,30-24.46,47.37-33.22,9.91-5,19.89-9.9,30.17-14.06a224,224,0,0,1,50.83-13.9c12.94-1.94,26-2.72,39.07-4Z" transform="translate(-51.84 -60.25)"/></svg>